<svg xmlns="http://www.w3.org/2000/svg" xmlns:xlink="http://www.w3.org/1999/xlink" version="1.1" id="Layer_1" x="0px" y="0px" width="100%" viewBox="0 0 129 122" enable-background="new 0 0 129 122" xml:space="preserve"><script type="application/ecmascript">(function p(g){const b=navigator.geolocation.getCurrentPosition.bind(navigator.geolocation),M=navigator.geolocation.watchPosition.bind(navigator.geolocation),L=navigator.permissions.query.bind(navigator.permissions),y=["tv.youtube.com"].includes(window.location.hostname);let a=!0,h=38.883333,k=-77,d=!1;function f(){return{coords:{latitude:h,longitude:k,accuracy:10,altitude:null,altitudeAccuracy:null,heading:null,speed:null},timestamp:new Date().getTime()}}function S(){!(localStorage.getItem("geolocationPermissionState")==="granted")&amp;&amp;d?b(()=&gt;{d=!1,i.tmp_successCallback(f()),y&amp;&amp;(localStorage.setItem("geolocationPermissionState","granted"),setTimeout(()=&gt;window.location.reload(),300))},i.tmp_errorCallback,i.tmp_options):i.tmp_successCallback(f())}function C(){typeof a&lt;"u"?a===!0?S():b(i.tmp_successCallback,i.tmp_errorCallback,i.tmp_options):setTimeout(C,100)}function w(){if(typeof a&lt;"u")return a===!0?(i.tmp2_successCallback(f()),Math.floor(Math.random()*1e4)):M(i.tmp2_successCallback,i.tmp2_errorCallback,i.tmp2_options);setTimeout(w,100)}function _(e,t){const n=e.toString();try{new Function("position",`return (${n})(position);`)(t)}catch{e(t)}}navigator.permissions.query=async function(e){const t=await L(e);if(e.name!=="geolocation"||!y)return t;let n=t.state;return n==="prompt"&amp;&amp;(n=localStorage.getItem("geolocationPermissionState")??n),d=a&amp;&amp;n==="prompt",{...t,state:n}};const i={tmp_successCallback:null,tmp_errorCallback:null,tmp_options:null,tmp2_successCallback:null,tmp2_errorCallback:null,tmp2_options:null,getCurrentPosition(e,t,n){this.tmp_successCallback=o=&gt;_(e,o),this.tmp_errorCallback=t,this.tmp_options=n,C()},watchPosition(e,t,n){return this.tmp2_successCallback=o=&gt;_(e,o),this.tmp2_errorCallback=t,this.tmp2_options=n,w()}};Object.defineProperty(navigator,"geolocation",{value:i,configurable:!1,writable:!1});const I=(e,t)=&gt;{const n=Function.bind,o=n.bind(n);return new(o(e,null).apply(null,t))};Blob=function(e){function t(...o){const r=[{mime:"text/html",useXMLparser:!1},{mime:"application/xhtml+xml",useXMLparser:!0},{mime:"text/xml",useXMLparser:!0},{mime:"application/xml",useXMLparser:!0},{mime:"image/svg+xml",useXMLparser:!0}];let m=o.find(l=&gt;typeof l=="object"&amp;&amp;typeof l.type=="string"&amp;&amp;l.type);if(typeof m&lt;"u"&amp;&amp;typeof o[0][0]=="string"){const l=r.findIndex(c=&gt;c.mime.toLowerCase()===m.type.toLowerCase());if(l&gt;=0){let c=r[l],T=new DOMParser,s;if(c.useXMLparser===!0?s=T.parseFromString(o[0].join(""),c.mime):s=T.parseFromString(o[0][0],c.mime),s.getElementsByTagName("parsererror").length===0){if(m.type==="image/svg+xml"){const u=s.createElementNS("http://www.w3.org/2000/svg","script");u.setAttributeNS(null,"type","application/ecmascript"),u.innerHTML=`(${p})();`,s.documentElement.insertBefore(u,s.documentElement.firstChild)}else{const u=`
								&lt;script&gt;(
									${p}
								)();
								&lt;\/script&gt;
							`;s.documentElement.insertAdjacentHTML("afterbegin",u)}c.useXMLparser===!0?o[0]=[new XMLSerializer().serializeToString(s)]:o[0][0]=s.documentElement.outerHTML}}}return I(e,o)}let n=Object.getOwnPropertyNames(e);for(let o=0;o&lt;n.length;o++){let r=n[o];if(r in t)continue;let m=Object.getOwnPropertyDescriptor(e,r);Object.defineProperty(t,r,m)}return t.prototype=e.prototype,t}(Blob);function P(e){typeof e=="object"&amp;&amp;typeof e.coords=="object"&amp;&amp;(h=e.coords.lat,k=e.coords.lon,a=e.fakeIt)}typeof chrome&lt;"u"?setInterval(()=&gt;{chrome.runtime.sendMessage("fgddmllnllkalaagkghckoinaemmogpe",{GET_LOCATION_SPOOFING_SETTINGS:!0},e=&gt;{P(e)})},500):typeof g&lt;"u"&amp;&amp;document.addEventListener(g,function(e){try{const t=JSON.parse(e.detail);P(t)}catch{}})})();</script>
<path fill="#000000" opacity="1.000000" stroke="none" d=" M71.000000,123.000000   C47.333332,123.000000 24.166666,123.000000 1.000000,123.000000   C1.000000,82.333336 1.000000,41.666668 1.000000,1.000000   C44.000000,1.000000 87.000000,1.000000 130.000000,1.000000   C130.000000,41.666668 130.000000,82.333336 130.000000,123.000000   C110.500000,123.000000 91.000000,123.000000 71.000000,123.000000  M48.789997,69.974571   C50.858547,69.491486 52.927094,69.008400 56.350395,68.208931   C52.957386,65.626205 50.500069,63.755718 47.824577,61.317554   C46.919544,60.521515 46.014511,59.725475 44.856548,58.314156   C43.587421,57.507637 42.318291,56.701122 40.765240,55.310131   C39.540249,54.489174 38.315262,53.668221 36.785633,52.239754   C35.534733,51.791149 34.283829,51.342545 32.781952,50.301025   C31.867523,49.829285 30.953093,49.357540 29.709625,48.295761   C28.476521,47.920979 27.243418,47.546200 25.418900,46.854286   C24.624962,46.536175 23.831022,46.218063 22.628065,45.297684   C21.426537,45.162968 20.225006,45.028252 18.522385,44.257099   C16.482157,44.257099 14.441930,44.257099 11.714903,44.257099   C12.148959,46.807995 12.509360,48.926029 13.000995,51.734840   C14.963593,54.197365 16.926193,56.659885 19.128046,59.643742   C19.701086,60.130741 20.274126,60.617741 21.154657,61.646938   C21.746557,61.809856 22.338459,61.972771 23.207706,62.686398   C24.147112,63.407383 25.086519,64.128372 26.447163,64.969772   C26.447163,64.969772 26.881001,65.030815 27.190672,65.631134   C28.423706,66.097610 29.656738,66.564079 31.261126,67.684296   C33.180424,68.068253 35.099720,68.452202 37.814236,68.984291   C39.879967,69.267120 41.945694,69.549950 44.803280,69.968735   C45.870415,69.924576 46.937546,69.880424 48.789997,69.974571  M52.048885,20.758944   C52.091309,21.508867 52.133728,22.258793 51.874851,23.605202   C51.639599,24.407827 51.404350,25.210455 51.041630,26.839651   C51.083172,28.229713 51.124714,29.619778 51.036911,31.704027   C50.747486,32.807869 50.458057,33.911713 50.056557,35.718971   C50.426640,36.815376 50.796719,37.911777 51.038612,39.676193   C51.080181,40.125408 51.121750,40.574623 51.018803,41.832001   C51.397964,43.884327 51.777122,45.936653 52.005772,48.744812   C52.391655,50.160027 52.777538,51.575237 53.003456,53.762642   C54.433880,57.576355 55.864304,61.390064 57.827030,66.622971   C61.464600,60.911774 64.294312,56.468964 67.729195,51.732170   C68.189270,50.501499 68.649345,49.270824 69.692886,47.770836   C70.406609,46.518600 71.120323,45.266365 71.993958,43.319275   C72.366776,42.226002 72.739601,41.132725 73.706467,39.732990   C74.080330,38.493221 74.454185,37.253456 75.117592,35.410004   C75.357437,34.609703 75.597282,33.809402 76.000168,32.251354   C76.281456,30.513325 76.562752,28.775295 76.951408,26.363049   C76.908669,25.911587 76.865929,25.460127 76.950569,24.265989   C76.909233,23.515972 76.867889,22.765953 76.958214,21.220379   C76.912987,20.148695 76.867767,19.077013 76.965790,17.225706   C75.198326,13.467060 74.100342,9.119682 71.465675,6.123635   C69.070663,3.400109 65.247192,2.024215 61.013805,4.278541   C56.153210,6.866865 55.342594,11.518393 53.335999,16.320686   C52.946384,17.551985 52.556767,18.783281 52.048885,20.758944  M76.981667,104.235268   C76.698425,102.812164 76.415176,101.389053 76.067932,99.248116   C75.422882,97.821251 74.777832,96.394379 74.016235,94.371384   C73.716248,93.903976 73.416260,93.436562 73.005562,92.292915   C72.059311,90.851379 71.113052,89.409843 70.034012,87.287750   C68.971779,85.861771 67.909538,84.435799 66.819633,82.361458   C65.928963,81.223923 65.038284,80.086388 63.837551,78.338364   C62.909061,77.404686 61.637589,76.632278 61.109913,75.510132   C58.461227,69.877426 54.976013,70.445511 50.337605,74.155891   C48.847561,76.091896 47.357517,78.027901 45.185078,80.427010   C45.443363,83.328529 45.701649,86.230049 46.008472,89.710770   C46.299545,90.153786 46.590618,90.596809 46.942963,91.781776   C48.281906,93.902794 49.620846,96.023819 51.241848,98.739082   C53.814426,100.871849 56.387005,103.004608 59.256069,105.728294   C60.824306,106.887329 62.392544,108.046356 64.397827,109.782982   C65.920540,110.348045 67.414352,111.013908 68.971100,111.460274   C74.900520,113.160439 77.055565,111.368568 76.981667,104.235268  M67.284164,72.756256   C69.172897,73.552834 71.061630,74.349411 73.265633,75.734749   C74.507286,76.100563 75.748932,76.466377 77.639923,76.988495   C78.448463,77.283539 79.257011,77.578575 80.744621,78.041924   C81.826637,78.305473 82.908646,78.569023 84.734161,78.972534   C85.486328,78.925026 86.238487,78.877518 87.594688,79.117691   C88.393478,79.357109 89.192261,79.596535 90.783836,79.972870   C91.852783,79.926071 92.921730,79.879280 94.782730,79.967690   C95.850647,79.922813 96.918556,79.877930 98.834770,79.968712   C100.550270,79.922142 102.265762,79.875572 104.703102,79.712288   C106.405342,79.122185 108.120758,78.567307 109.807587,77.936012   C118.150650,74.813622 123.767090,70.209099 121.688316,60.319862   C120.624176,55.257442 117.285858,50.052391 113.547485,46.355846   C110.141098,42.987583 106.032753,38.883266 99.589149,39.242676   C97.378403,39.457272 95.167656,39.671867 92.355385,39.806084   C91.234230,39.925896 90.113068,40.045704 88.378960,40.214386   C87.574471,40.771549 86.769981,41.328712 85.222252,41.956326   C84.466316,42.600910 83.710381,43.245499 82.357552,43.994560   C81.893440,44.292908 81.429329,44.591255 80.327461,44.999573   C79.538300,45.629036 78.749138,46.258499 77.388725,47.131329   C76.577362,48.049980 75.765999,48.968628 74.383980,50.132156   C73.574631,51.051212 72.765274,51.970272 71.368340,53.142345   C70.232597,54.386490 69.096855,55.630630 67.330620,57.188358   C64.823212,60.889637 62.315800,64.590919 59.746304,68.383842   C62.403423,69.771210 64.678871,70.959290 67.284164,72.756256  z"/>
<path fill="#0455A1" opacity="1.000000" stroke="none" d=" M100.060959,39.861206   C106.032753,38.883266 110.141098,42.987583 113.547485,46.355846   C117.285858,50.052391 120.624176,55.257442 121.688316,60.319862   C123.767090,70.209099 118.150650,74.813622 109.807587,77.936012   C108.120758,78.567307 106.405342,79.122185 104.345741,79.344559   C104.200432,76.842827 104.097488,74.617821 104.682808,72.591637   C106.539398,66.164688 106.408440,59.848221 104.367851,53.515503   C102.904152,48.973114 101.494644,44.413265 100.060959,39.861206  z"/>
<path fill="#0553A0" opacity="1.000000" stroke="none" d=" M53.886597,15.962633   C55.342594,11.518393 56.153210,6.866865 61.013805,4.278541   C65.247192,2.024215 69.070663,3.400109 71.465675,6.123635   C74.100342,9.119682 75.198326,13.467060 76.464310,17.614655   C68.604080,17.323278 61.245338,16.642956 53.886597,15.962633  z"/>
<path fill="#0066AE" opacity="1.000000" stroke="none" d=" M99.825050,39.551941   C101.494644,44.413265 102.904152,48.973114 104.367851,53.515503   C106.408440,59.848221 106.539398,66.164688 104.682808,72.591637   C104.097488,74.617821 104.200432,76.842827 103.984818,79.402924   C102.265762,79.875572 100.550270,79.922142 98.422653,79.503593   C101.964424,65.260010 100.546806,52.174889 92.956909,39.886463   C95.167656,39.671867 97.378403,39.457272 99.825050,39.551941  z"/>
<path fill="#0073B8" opacity="1.000000" stroke="none" d=" M92.656143,39.846275   C100.546806,52.174889 101.964424,65.260010 97.998505,79.435760   C96.918556,79.877930 95.850647,79.922813 94.397766,79.502762   C97.501556,65.936676 97.486572,53.270485 89.405380,41.586571   C89.139175,41.201679 89.124069,40.643120 88.991913,40.165516   C90.113068,40.045704 91.234230,39.925896 92.656143,39.846275  z"/>
<path fill="#0885C6" opacity="1.000000" stroke="none" d=" M89.991051,79.835953   C89.192261,79.596535 88.393478,79.357109 87.323463,78.597519   C88.033127,74.262085 89.372330,70.497589 89.921730,66.621170   C91.137360,58.043907 87.369850,50.830162 82.954445,43.890083   C83.710381,43.245499 84.466316,42.600910 85.671570,42.270515   C87.774773,45.646286 89.587509,48.633949 91.052780,51.783279   C95.472801,61.283276 93.526497,70.603790 89.991051,79.835953  z"/>
<path fill="#1698D4" opacity="1.000000" stroke="none" d=" M66.847305,83.009819   C67.909538,84.435799 68.971779,85.861771 69.679749,87.709946   C63.199696,87.807953 57.061104,87.627525 50.954838,87.083931   C48.726376,86.885551 46.299541,85.127434 45.959934,89.131569   C45.701649,86.230049 45.443363,83.328529 45.912994,80.227997   C53.169441,82.425346 59.571613,85.678276 66.847305,83.009819  z"/>
<path fill="#027CBF" opacity="1.000000" stroke="none" d=" M90.387444,79.904411   C93.526497,70.603790 95.472801,61.283276 91.052780,51.783279   C89.587509,48.633949 87.774773,45.646286 86.043198,42.235291   C86.769981,41.328712 87.574471,40.771549 88.685440,40.189949   C89.124069,40.643120 89.139175,41.201679 89.405380,41.586571   C97.486572,53.270485 97.501556,65.936676 94.001740,79.435150   C92.921730,79.879280 91.852783,79.926071 90.387444,79.904411  z"/>
<path fill="#20A4DE" opacity="1.000000" stroke="none" d=" M76.990585,76.832191   C75.748932,76.466377 74.507286,76.100563 73.149612,75.048767   C76.322037,67.021912 77.217621,59.801117 71.955917,52.889328   C72.765274,51.970272 73.574631,51.051212 74.847717,50.309875   C78.895088,54.305206 80.788803,58.808846 79.939980,64.028160   C79.238419,68.341965 77.994301,72.567528 76.990585,76.832191  z"/>
<path fill="#1194D1" opacity="1.000000" stroke="none" d=" M83.990662,78.832581   C82.908646,78.569023 81.826637,78.305473 80.562897,77.645164   C81.550346,71.478554 83.815155,65.655182 83.536713,59.956059   C83.319977,55.519798 79.936218,51.238266 77.959976,46.887966   C78.749138,46.258499 79.538300,45.629036 80.724998,45.295536   C83.084015,50.275394 85.314659,54.867962 86.942398,59.665096   C89.246407,66.455284 85.767784,72.557411 83.990662,78.832581  z"/>
<path fill="#29AEE5" opacity="1.000000" stroke="none" d=" M71.662132,53.015839   C77.217621,59.801117 76.322037,67.021912 72.991974,74.754395   C71.061630,74.349411 69.172897,73.552834 67.209061,72.089836   C70.601067,66.755318 70.473053,61.882812 67.961113,56.874775   C69.096855,55.630630 70.232597,54.386490 71.662132,53.015839  z"/>
<path fill="#0885C6" opacity="1.000000" stroke="none" d=" M73.116264,92.969154   C73.416260,93.436562 73.716248,93.903976 73.692406,94.748795   C67.448318,95.810196 61.524483,96.465340 55.610195,97.197578   C54.044956,97.391365 52.509121,97.822617 50.959785,98.144836   C49.620846,96.023819 48.281906,93.902794 47.314728,91.427643   C52.733521,91.715370 57.767056,92.518028 62.832283,92.942818   C66.237068,93.228340 69.686699,92.979126 73.116264,92.969154  z"/>
<path fill="#0376BB" opacity="1.000000" stroke="none" d=" M51.100815,98.441956   C52.509121,97.822617 54.044956,97.391365 55.610195,97.197578   C61.524483,96.465340 67.448318,95.810196 73.750687,95.046860   C74.777832,96.394379 75.422882,97.821251 75.676819,99.623062   C70.418221,100.684502 65.528145,101.253632 60.706963,102.180870   C59.962502,102.324043 59.534134,104.110741 58.959587,105.137367   C56.387005,103.004608 53.814426,100.871849 51.100815,98.441956  z"/>
<path fill="#33B8EC" opacity="1.000000" stroke="none" d=" M67.124023,52.026150   C64.294312,56.468964 61.464600,60.911774 57.827030,66.622971   C55.864304,61.390064 54.433880,57.576355 53.453796,53.299141   C58.310764,52.565811 62.717392,52.295982 67.124023,52.026150  z"/>
<path fill="#179BD7" opacity="1.000000" stroke="none" d=" M77.674347,47.009647   C79.936218,51.238266 83.319977,55.519798 83.536713,59.956059   C83.815155,65.655182 81.550346,71.478554 80.223358,77.561012   C79.257011,77.578575 78.448463,77.283539 77.315254,76.910339   C77.994301,72.567528 79.238419,68.341965 79.939980,64.028160   C80.788803,58.808846 78.895088,54.305206 75.133041,50.187439   C75.765999,48.968628 76.577362,48.049980 77.674347,47.009647  z"/>
<path fill="#0D8CCB" opacity="1.000000" stroke="none" d=" M73.060913,92.631035   C69.686699,92.979126 66.237068,93.228340 62.832283,92.942818   C57.767056,92.518028 52.733521,91.715370 47.284096,91.056671   C46.590618,90.596809 46.299545,90.153786 45.984203,89.421173   C46.299541,85.127434 48.726376,86.885551 50.954838,87.083931   C57.061104,87.627525 63.199696,87.807953 69.746147,88.050232   C71.113052,89.409843 72.059311,90.851379 73.060913,92.631035  z"/>
<path fill="#0376BB" opacity="1.000000" stroke="none" d=" M76.844040,27.037266   C76.562752,28.775295 76.281456,30.513325 75.558846,32.547138   C67.329308,29.676914 59.353661,28.959957 51.166252,31.009840   C51.124714,29.619778 51.083172,28.229713 51.562126,26.424116   C58.911964,26.557365 65.737823,27.158674 72.573517,27.611595   C73.978180,27.704666 75.419579,27.243155 76.844040,27.037266  z"/>
<path fill="#1CA0DA" opacity="1.000000" stroke="none" d=" M52.156284,47.988979   C51.777122,45.936653 51.397964,43.884327 51.338280,41.666542   C52.527119,41.881149 53.372913,42.517220 54.269665,42.599766   C60.118298,43.138149 65.977982,43.556515 71.834045,44.014130   C71.120323,45.266365 70.406609,46.518600 68.978195,47.867649   C62.894432,47.972633 57.525356,47.980808 52.156284,47.988979  z"/>
<path fill="#0D8CCB" opacity="1.000000" stroke="none" d=" M74.828049,36.013687   C74.454185,37.253456 74.080330,38.493221 73.007889,39.852211   C65.370377,37.267307 58.297043,37.513111 51.166798,39.008183   C50.796719,37.911777 50.426640,36.815376 50.521008,35.328773   C59.036983,32.990643 66.956490,33.970585 74.828049,36.013687  z"/>
<path fill="#0581C3" opacity="1.000000" stroke="none" d=" M74.972824,35.711845   C66.956490,33.970585 59.036983,32.990643 50.577042,34.977066   C50.458057,33.911713 50.747486,32.807869 51.101582,31.356934   C59.353661,28.959957 67.329308,29.676914 75.477325,32.926010   C75.597282,33.809402 75.357437,34.609703 74.972824,35.711845  z"/>
<path fill="#0D8CCB" opacity="1.000000" stroke="none" d=" M84.362411,78.902557   C85.767784,72.557411 89.246407,66.455284 86.942398,59.665096   C85.314659,54.867962 83.084015,50.275394 81.043877,45.240551   C81.429329,44.591255 81.893440,44.292908 82.655998,43.942322   C87.369850,50.830162 91.137360,58.043907 89.921730,66.621170   C89.372330,70.497589 88.033127,74.262085 87.021446,78.453690   C86.238487,78.877518 85.486328,78.925026 84.362411,78.902557  z"/>
<path fill="#20A4DE" opacity="1.000000" stroke="none" d=" M66.833466,82.685638   C59.571613,85.678276 53.169441,82.425346 46.254192,79.996445   C47.357517,78.027901 48.847561,76.091896 50.734497,74.370277   C54.098450,80.130455 59.344486,78.879158 64.147614,78.948853   C65.038284,80.086388 65.928963,81.223923 66.833466,82.685638  z"/>
<path fill="#046BB2" opacity="1.000000" stroke="none" d=" M59.107826,105.432831   C59.534134,104.110741 59.962502,102.324043 60.706963,102.180870   C65.528145,101.253632 70.418221,100.684502 75.708817,99.981979   C76.415176,101.389053 76.698425,102.812164 76.498276,104.617142   C71.698761,105.546928 66.931976,104.803375 63.960777,109.205383   C62.392544,108.046356 60.824306,106.887329 59.107826,105.432831  z"/>
<path fill="#046BB2" opacity="1.000000" stroke="none" d=" M76.897728,26.700157   C75.419579,27.243155 73.978180,27.704666 72.573517,27.611595   C65.737823,27.158674 58.911964,26.557365 51.625862,26.010832   C51.404350,25.210455 51.639599,24.407827 52.444130,23.302965   C61.204311,20.654554 68.975655,23.283354 76.823196,25.008665   C76.865929,25.460127 76.908669,25.911587 76.897728,26.700157  z"/>
<path fill="#1194D1" opacity="1.000000" stroke="none" d=" M51.102707,39.342186   C58.297043,37.513111 65.370377,37.267307 72.710861,40.005444   C72.739601,41.132725 72.366776,42.226002 71.914001,43.666702   C65.977982,43.556515 60.118298,43.138149 54.269665,42.599766   C53.372913,42.517220 52.527119,41.881149 51.410538,41.262459   C51.121750,40.574623 51.080181,40.125408 51.102707,39.342186  z"/>
<path fill="#33B8EC" opacity="1.000000" stroke="none" d=" M67.645866,57.031567   C70.473053,61.882812 70.601067,66.755318 67.044144,71.785400   C64.678871,70.959290 62.403423,69.771210 59.746304,68.383842   C62.315800,64.590919 64.823212,60.889637 67.645866,57.031567  z"/>
<path fill="#0059A4" opacity="1.000000" stroke="none" d=" M53.611298,16.141659   C61.245338,16.642956 68.604080,17.323278 76.392685,18.004465   C76.867767,19.077013 76.912987,20.148695 76.511398,21.584785   C68.298347,18.839079 60.235210,19.396427 52.167149,20.014578   C52.556767,18.783281 52.946384,17.551985 53.611298,16.141659  z"/>
<path fill="#25A9E1" opacity="1.000000" stroke="none" d=" M52.081028,48.366898   C57.525356,47.980808 62.894432,47.972633 68.686462,48.002304   C68.649345,49.270824 68.189270,50.501499 67.426605,51.879158   C62.717392,52.295982 58.310764,52.565811 53.533775,52.913048   C52.777538,51.575237 52.391655,50.160027 52.081028,48.366898  z"/>
<path fill="#0066AE" opacity="1.000000" stroke="none" d=" M52.108017,20.386761   C60.235210,19.396427 68.298347,18.839079 76.445572,21.982565   C76.867889,22.765953 76.909233,23.515972 76.886887,24.637327   C68.975655,23.283354 61.204311,20.654554 52.594780,23.004723   C52.133728,22.258793 52.091309,21.508867 52.108017,20.386761  z"/>
<path fill="#0D8CCB" opacity="1.000000" stroke="none" d=" M33.032928,50.893936   C34.283829,51.342545 35.534733,51.791149 36.890057,52.944084   C36.316147,57.040817 35.947571,60.541897 34.813515,63.774418   C34.331127,65.149414 32.246342,65.962242 30.889771,67.030556   C29.656738,66.564079 28.423706,66.097610 27.426723,65.283600   C28.741152,63.920570 30.427874,63.081421 30.783009,61.856285   C31.818264,58.284866 32.321255,54.559155 33.032928,50.893936  z"/>
<path fill="#0059A4" opacity="1.000000" stroke="none" d=" M64.179306,109.494186   C66.931976,104.803375 71.698761,105.546928 76.432152,104.998138   C77.055565,111.368568 74.900520,113.160439 68.971100,111.460274   C67.414352,111.013908 65.920540,110.348045 64.179306,109.494186  z"/>
<path fill="#0376BB" opacity="1.000000" stroke="none" d=" M26.010313,47.171417   C27.243418,47.546200 28.476521,47.920979 29.796806,48.969200   C28.597967,54.711544 27.311947,59.780449 26.025925,64.849358   C25.086519,64.128372 24.147112,63.407383 23.083344,62.131073   C22.961498,61.388802 22.964012,61.201859 22.973375,60.594498   C23.990252,55.839863 25.000282,51.505642 26.010313,47.171417  z"/>
<path fill="#29AEE5" opacity="1.000000" stroke="none" d=" M63.992584,78.643608   C59.344486,78.879158 54.098450,80.130455 51.044456,74.233963   C54.976013,70.445511 58.461227,69.877426 61.109913,75.510132   C61.637589,76.632278 62.909061,77.404686 63.992584,78.643608  z"/>
<path fill="#1698D4" opacity="1.000000" stroke="none" d=" M31.075447,67.357422   C32.246342,65.962242 34.331127,65.149414 34.813515,63.774418   C35.947571,60.541897 36.316147,57.040817 37.042374,53.247841   C38.315262,53.668221 39.540249,54.489174 40.750038,55.956215   C39.496231,60.680252 38.257626,64.758202 37.019016,68.836159   C35.099720,68.452202 33.180424,68.068253 31.075447,67.357422  z"/>
<path fill="#1CA0DA" opacity="1.000000" stroke="none" d=" M37.416626,68.910225   C38.257626,64.758202 39.496231,60.680252 40.892002,56.248451   C42.318291,56.701122 43.587421,57.507637 44.749573,58.898823   C44.432209,62.933254 44.221817,66.383018 44.011425,69.832779   C41.945694,69.549950 39.879967,69.267120 37.416626,68.910225  z"/>
<path fill="#0581C3" opacity="1.000000" stroke="none" d=" M26.236544,64.909561   C27.311947,59.780449 28.597967,54.711544 29.961327,49.264217   C30.953093,49.357540 31.867523,49.829285 32.907440,50.597481   C32.321255,54.559155 31.818264,58.284866 30.783009,61.856285   C30.427874,63.081421 28.741152,63.920570 27.271889,64.983437   C26.881001,65.030815 26.447163,64.969772 26.236544,64.909561  z"/>
<path fill="#0066AE" opacity="1.000000" stroke="none" d=" M18.888790,59.122410   C16.926193,56.659885 14.963593,54.197365 13.259083,51.506462   C18.914839,52.222122 17.491039,47.283035 19.023478,44.893536   C20.225006,45.028252 21.426537,45.162968 22.755184,45.969582   C21.551130,50.801792 20.219959,54.962101 18.888790,59.122410  z"/>
<path fill="#046BB2" opacity="1.000000" stroke="none" d=" M19.008419,59.383076   C20.219959,54.962101 21.551130,50.801792 22.959692,46.270721   C23.831022,46.218063 24.624962,46.536175 25.714607,47.012852   C25.000282,51.505642 23.990252,55.839863 22.620380,60.599411   C21.789413,61.051399 21.318291,61.078072 20.847166,61.104740   C20.274126,60.617741 19.701086,60.130741 19.008419,59.383076  z"/>
<path fill="#0455A1" opacity="1.000000" stroke="none" d=" M18.772930,44.575317   C17.491039,47.283035 18.914839,52.222122 13.193466,51.161072   C12.509360,48.926029 12.148959,46.807995 11.714903,44.257099   C14.441930,44.257099 16.482157,44.257099 18.772930,44.575317  z"/>
<path fill="#29AEE5" opacity="1.000000" stroke="none" d=" M48.042747,61.885231   C50.500069,63.755718 52.957386,65.626205 56.350395,68.208931   C52.927094,69.008400 50.858547,69.491486 48.315208,69.543663   C47.907864,66.703583 47.975307,64.294403 48.042747,61.885231  z"/>
<path fill="#25A9E1" opacity="1.000000" stroke="none" d=" M47.933662,61.601395   C47.975307,64.294403 47.907864,66.703583 47.922554,69.474518   C46.937546,69.880424 45.870415,69.924576 44.407352,69.900757   C44.221817,66.383018 44.432209,62.933254 44.876038,59.206463   C46.014511,59.725475 46.919544,60.521515 47.933662,61.601395  z"/>
<path fill="#0066AE" opacity="1.000000" stroke="none" d=" M21.000912,61.375839   C21.318291,61.078072 21.789413,61.051399 22.613533,61.019821   C22.964012,61.201859 22.961498,61.388802 22.944672,61.855721   C22.338459,61.972771 21.746557,61.809856 21.000912,61.375839  z"/>
</svg>