<svg width="525" height="163" viewBox="0 0 525 163" fill="none" xmlns="http://www.w3.org/2000/svg">
<g clip-path="url(#clip0_1_13)">
<path d="M180.774 101.613C181.263 101.613 181.678 101.442 182.02 101.101C182.362 100.76 182.533 100.345 182.533 99.8576V90.0084C182.533 89.5208 182.362 89.1063 182.02 88.765C181.678 88.4237 181.263 88.2531 180.774 88.2531H148.988C148.499 88.2531 148.084 88.4237 147.742 88.765C147.4 89.1063 147.229 89.5208 147.229 90.0084V99.8576C147.229 100.345 147.4 100.76 147.742 101.101C148.084 101.442 148.499 101.613 148.988 101.613H156.122V120.531H148.988C148.499 120.531 148.084 120.702 147.742 121.043C147.4 121.385 147.229 121.799 147.229 122.287V132.136C147.229 132.623 147.4 133.038 147.742 133.379C148.084 133.72 148.499 133.891 148.988 133.891H180.799C181.287 133.891 181.703 133.72 182.045 133.379C182.387 133.038 182.558 132.623 182.558 132.136V122.287C182.558 121.799 182.387 121.385 182.045 121.043C181.703 120.702 181.287 120.531 180.799 120.531H173.786V101.613H180.774Z" fill="#002666"/>
<path d="M83.6804 88.2287H51.8696C51.3809 88.2287 50.9656 88.3994 50.6235 88.7407C50.2815 89.082 50.1105 89.4964 50.1105 89.984V99.8332C50.1105 100.321 50.2815 100.735 50.6235 101.077C50.9656 101.418 51.3809 101.589 51.8696 101.589H59.0038V120.507H51.8696C51.3809 120.507 50.9656 120.678 50.6235 121.019C50.2815 121.36 50.1105 121.775 50.1105 122.262V132.111C50.1105 132.599 50.2815 133.013 50.6235 133.355C50.9656 133.696 51.3809 133.867 51.8696 133.867H83.6804C84.169 133.867 84.5844 133.696 84.9264 133.355C85.2685 133.013 85.4395 132.599 85.4395 132.111V122.262C85.4395 121.775 85.2685 121.36 84.9264 121.019C84.5844 120.678 84.169 120.507 83.6804 120.507H76.6683V101.589H83.6804C84.169 101.589 84.5844 101.418 84.9264 101.077C85.2685 100.735 85.4395 100.321 85.4395 99.8332V89.984C85.4395 89.4964 85.2685 89.082 84.9264 88.7407C84.5844 88.3994 84.169 88.2287 83.6804 88.2287Z" fill="#002666"/>
<path d="M28.7079 88.2287H1.75912C1.27048 88.2287 0.855128 88.3994 0.513077 88.7407C0.171026 89.1064 0 89.5208 0 90.0084V132.136C0 132.623 0.171026 133.038 0.513077 133.379C0.855128 133.72 1.27048 133.891 1.75912 133.891H15.881C16.3696 133.891 16.7849 133.72 17.127 133.379C17.4691 133.038 17.6401 132.623 17.6401 132.136V123.042H28.6834C38.1143 123.042 45.4928 115.485 45.4928 105.831C45.5173 96.1276 37.9677 88.2287 28.7079 88.2287ZM25.5317 109.682H17.6645V101.613H25.5317C26.6556 101.613 28.659 102.832 28.659 105.636C28.659 108.049 27.3885 109.682 25.5317 109.682Z" fill="#002666"/>
<path d="M127.878 90.179C127.39 88.8869 126.437 88.2287 124.995 88.2287H109.75C108.308 88.2287 107.355 88.8869 106.867 90.179L91.6941 131.99C91.6453 132.16 91.6208 132.38 91.6208 132.648C91.6208 132.916 91.7674 133.184 92.0362 133.452C92.3294 133.745 92.647 133.867 93.0379 133.867H106.842C107.624 133.867 108.259 133.647 108.772 133.184C109.285 132.721 109.603 132.233 109.774 131.721L110.507 128.869H124.14L124.873 131.721C125.044 132.233 125.386 132.721 125.875 133.184C126.388 133.647 127.023 133.867 127.805 133.867H141.609C142 133.867 142.342 133.72 142.611 133.452C142.904 133.16 143.026 132.892 143.026 132.648C143.026 132.38 143.002 132.16 142.953 131.99L127.878 90.179ZM114.025 115.534L117.348 102.71L117.372 102.637L117.397 102.71L120.72 115.534H114.025Z" fill="#002666"/>
<path d="M201.664 67.7501C201.664 67.7501 174.593 76.039 199.465 99.175C224.337 122.311 230.811 100.516 201.664 67.7501Z" fill="url(#paint0_radial_1_13)"/>
<path d="M204.351 65.2146C204.351 65.2146 230.982 17.9675 257.442 43.2001C283.927 68.4571 244.689 91.4955 204.351 65.2146Z" fill="url(#paint1_radial_1_13)"/>
<path d="M201.859 62.5573C201.859 62.5573 232.888 24.9888 216.909 4.92462C200.955 -15.1395 185.099 30.6204 201.859 62.5573Z" fill="url(#paint2_radial_1_13)"/>
<path d="M199.978 65.3609C199.978 65.3609 175.961 72.309 159.933 52.318C143.881 32.3026 175.301 39.8358 199.978 65.3609Z" fill="url(#paint3_radial_1_13)"/>
<path d="M239.289 159.831H237.823V148.982C237.823 148.982 239.436 148.982 240.56 148.982C242.441 148.982 243.956 150.176 243.956 152.102C243.956 154.126 242.514 155.296 241.049 155.296C240.389 155.296 239.289 155.296 239.289 155.296V159.831ZM239.289 154.004C239.289 154.004 240.218 154.004 240.364 154.004C241.782 154.004 242.441 153.2 242.441 152.127C242.441 151.127 241.684 150.372 240.438 150.372C240.047 150.372 239.289 150.372 239.289 150.372V154.004Z" fill="#002666"/>
<path d="M250.748 148.762C254.071 148.762 256.441 151.298 256.441 154.54C256.441 157.637 253.973 160.099 250.748 160.099C247.474 160.099 245.104 157.539 245.104 154.418C245.104 151.176 247.645 148.762 250.748 148.762ZM246.692 154.418C246.692 156.881 248.452 158.612 250.773 158.612C253.289 158.612 254.902 156.93 254.902 154.443C254.902 152.078 253.338 150.25 250.846 150.25C248.305 150.225 246.692 152.127 246.692 154.418Z" fill="#002666"/>
<path d="M261.107 148.762C262.256 148.762 263.184 149.299 263.844 149.957L263.038 150.932C263.038 150.932 262.207 150.03 261.083 150.03C259.886 150.03 259.275 150.81 259.275 151.615C259.275 152.444 259.861 152.956 260.668 153.224C261.278 153.419 261.743 153.638 262.353 153.882C263.648 154.418 264.479 155.467 264.479 156.856C264.479 158.709 262.842 160.099 260.985 160.099C259.446 160.099 258.395 159.441 257.418 158.368L258.42 157.442C258.86 158.002 259.764 158.758 260.912 158.758C262.085 158.758 263.062 158.075 263.062 156.93C263.062 155.93 262.305 155.418 261.449 155.077C260.863 154.833 260.448 154.687 259.861 154.443C258.664 153.955 257.833 153.029 257.833 151.737C257.809 149.933 259.275 148.762 261.107 148.762Z" fill="#002666"/>
<path d="M267.582 159.831V150.372H265.236V148.958H271.467V150.372H269.072V159.831H267.582Z" fill="#002666"/>
<path d="M278.283 148.982V150.298H274.228V153.2H278.161V154.54H274.228V158.465H278.283V159.831H272.762V148.982H278.283Z" fill="#002666"/>
<path d="M285.442 148.762C286.419 148.762 287.494 149.055 288.3 149.518V151.03C288.3 151.03 287.177 150.176 285.54 150.176C283.17 150.176 281.435 151.859 281.435 154.467C281.435 156.881 282.974 158.685 285.54 158.685C286.688 158.685 287.568 158.222 288.325 157.783V159.319C288.032 159.563 286.639 160.099 285.491 160.099C282.241 160.099 279.92 157.685 279.92 154.418C279.92 151.2 282.339 148.762 285.442 148.762Z" fill="#002666"/>
<path d="M291.648 148.982V153.248H296.583V148.982H298.049V159.831H296.583V154.516H291.648V159.831H290.182V148.982H291.648Z" fill="#002666"/>
<path d="M304.059 159.831V148.982H305.525V159.831H304.059Z" fill="#002666"/>
<path d="M307.895 159.831V151.127H309.263V152.371C309.899 151.42 310.729 150.932 311.878 150.932C313.686 150.932 314.883 152.005 314.883 153.614C314.883 155.711 314.883 157.734 314.883 159.831H313.466C313.466 159.831 313.466 155.881 313.466 154.004C313.466 152.883 312.879 152.249 311.707 152.249C310.021 152.249 309.288 153.565 309.288 154.979C309.288 156.735 309.288 159.831 309.288 159.831H307.895Z" fill="#002666"/>
<path d="M319.061 150.932C320.209 150.932 321.113 151.59 321.504 152.639L320.356 153.151C320.233 152.834 319.891 152.151 319.036 152.151C318.377 152.151 317.864 152.614 317.864 153.248C317.864 154.004 318.523 154.345 319.207 154.662C319.525 154.809 319.72 154.906 320.062 155.052C321.113 155.54 321.797 156.369 321.797 157.466C321.797 159.148 320.429 160.123 318.89 160.123C317.619 160.123 316.593 159.465 316.08 158.368L317.253 157.734C317.399 158.1 317.888 158.88 318.841 158.88C319.843 158.88 320.38 158.344 320.38 157.612C320.38 157.027 319.989 156.515 319.403 156.271C318.841 156.028 318.303 155.784 318.01 155.637C316.813 155.077 316.446 154.15 316.446 153.346C316.471 151.932 317.546 150.932 319.061 150.932Z" fill="#002666"/>
<path d="M324.729 159.831H323.312V152.371H322.286V151.127H323.312V148.982H324.729V151.127C325.071 151.127 326.244 151.127 326.244 151.127V152.371H324.729C324.729 154.102 324.729 159.831 324.729 159.831Z" fill="#002666"/>
<path d="M329.176 149.348C329.176 149.884 328.736 150.323 328.198 150.323C327.685 150.323 327.245 149.884 327.245 149.348C327.245 148.836 327.685 148.372 328.198 148.372C328.736 148.397 329.176 148.836 329.176 149.348ZM327.514 159.831V151.127H328.931V159.831H327.514Z" fill="#002666"/>
<path d="M332.45 159.831H331.032V152.371H330.006V151.127H331.032V148.982H332.45V151.127C332.816 151.127 333.964 151.127 333.964 151.127V152.371H332.45C332.45 154.102 332.45 159.831 332.45 159.831Z" fill="#002666"/>
<path d="M340.757 151.127H342.125C342.125 151.127 342.125 155.589 342.125 157.027C342.125 159.099 340.512 160.099 338.704 160.099C336.701 160.099 335.21 159.172 335.21 157.076C335.21 155.028 335.21 151.152 335.21 151.152H336.627C336.627 151.152 336.627 155.637 336.627 157.051C336.627 158.49 337.678 158.904 338.753 158.904C339.828 158.904 340.757 158.319 340.757 157.076C340.757 155.125 340.757 151.127 340.757 151.127Z" fill="#002666"/>
<path d="M345.692 159.831H344.275V152.371H343.249V151.127H344.275V148.982H345.692V151.127C346.058 151.127 347.207 151.127 347.207 151.127V152.371H345.692C345.692 154.102 345.692 159.831 345.692 159.831Z" fill="#002666"/>
<path d="M352.215 150.932C354.781 150.932 356.271 153.004 356.271 155.711H349.381C349.381 157.344 350.456 158.88 352.313 158.88C353.461 158.88 354.487 158.051 354.878 157.1L356.051 157.71C355.489 158.88 354.023 160.099 352.289 160.099C349.65 160.099 347.988 157.953 347.988 155.516C347.988 153.078 349.625 150.932 352.215 150.932ZM349.479 154.614H354.829C354.707 153.346 353.852 152.102 352.191 152.102C350.7 152.102 349.601 153.346 349.479 154.614Z" fill="#002666"/>
<path d="M365.58 150.932C368.17 150.932 370.271 152.785 370.271 155.491C370.271 158.027 368.194 160.099 365.653 160.099C363.088 160.099 360.986 158.051 360.986 155.516C360.986 152.98 362.965 150.932 365.58 150.932ZM362.428 155.54C362.428 157.32 363.845 158.758 365.629 158.758C367.437 158.758 368.829 157.417 368.829 155.491C368.829 153.711 367.559 152.224 365.58 152.224C363.698 152.2 362.428 153.711 362.428 155.54Z" fill="#002666"/>
<path d="M375.255 151.127C375.255 151.322 375.255 152.273 375.255 152.273C375.255 152.273 374.107 152.273 373.374 152.273C373.374 152.541 373.374 159.831 373.374 159.831H371.956V152.273H370.759V151.127H372.005C372.005 151.127 372.005 150.932 372.005 150.908C372.005 149.567 372.763 148.348 374.424 148.348C374.913 148.348 375.279 148.446 375.67 148.543C375.67 148.543 375.67 149.616 375.67 149.86C375.353 149.689 375.035 149.567 374.595 149.567C373.935 149.567 373.374 149.957 373.374 150.908C373.374 150.981 373.374 151.127 373.374 151.127H375.255Z" fill="#002666"/>
<path d="M380.923 159.831H379.286L384.368 148.641L389.499 159.831H387.862L386.762 157.271H382.023L380.923 159.831ZM382.56 156.003H386.225L384.393 151.859L382.56 156.003Z" fill="#002666"/>
<path d="M392.162 155.247V159.831H390.745V151.127H392.113V152.371C392.651 151.395 393.408 150.981 394.361 150.981C394.654 150.981 394.996 151.054 395.314 151.152L394.972 152.517C394.972 152.517 394.434 152.322 393.994 152.322C392.455 152.346 392.162 154.272 392.162 155.247Z" fill="#002666"/>
<path d="M397.83 159.831H396.413V152.371H395.387V151.127H396.413V148.982H397.83V151.127C398.172 151.127 399.345 151.127 399.345 151.127V152.371H397.83C397.83 154.102 397.83 159.831 397.83 159.831Z" fill="#002666"/>
<path d="M402.277 149.348C402.277 149.884 401.837 150.323 401.3 150.323C400.787 150.323 400.347 149.884 400.347 149.348C400.347 148.836 400.787 148.372 401.3 148.372C401.837 148.397 402.277 148.836 402.277 149.348ZM400.591 159.831V151.127H402.008V159.831H400.591Z" fill="#002666"/>
<path d="M407.432 151.127C407.432 151.322 407.432 152.273 407.432 152.273C407.432 152.273 406.284 152.273 405.551 152.273C405.551 152.541 405.551 159.831 405.551 159.831H404.134V152.273H402.937V151.127H404.183C404.183 151.127 404.183 150.932 404.183 150.908C404.183 149.567 404.94 148.348 406.601 148.348C407.09 148.348 407.457 148.446 407.847 148.543C407.847 148.543 407.847 149.616 407.847 149.86C407.53 149.689 407.212 149.567 406.772 149.567C406.113 149.567 405.551 149.957 405.551 150.908C405.551 150.981 405.551 151.127 405.551 151.127H407.432Z" fill="#002666"/>
<path d="M410.535 149.348C410.535 149.884 410.095 150.323 409.558 150.323C409.045 150.323 408.58 149.884 408.58 149.348C408.58 148.836 409.02 148.372 409.558 148.372C410.095 148.397 410.535 148.836 410.535 149.348ZM408.849 159.831V151.127H410.266V159.831H408.849Z" fill="#002666"/>
<path d="M416.521 150.932C417.498 150.932 418.378 151.225 419.16 151.761V153.443C419.16 153.443 418.28 152.273 416.521 152.273C414.591 152.273 413.32 153.809 413.32 155.54C413.32 157.466 414.713 158.758 416.57 158.758C417.645 158.758 418.549 158.246 419.208 157.515V159.221C418.94 159.392 417.914 160.123 416.399 160.123C413.955 160.123 411.928 158.075 411.928 155.54C411.903 152.98 413.882 150.932 416.521 150.932Z" fill="#002666"/>
<path d="M422.8 149.348C422.8 149.884 422.36 150.323 421.823 150.323C421.31 150.323 420.845 149.884 420.845 149.348C420.845 148.836 421.285 148.372 421.823 148.372C422.36 148.397 422.8 148.836 422.8 149.348ZM421.114 159.831V151.127H422.531V159.831H421.114Z" fill="#002666"/>
<path d="M428.395 150.932C429.665 150.932 430.521 151.395 431.327 152.346V151.152H432.646V159.855H431.302V158.685C430.765 159.441 429.617 160.099 428.346 160.099C425.952 160.099 424.193 158.002 424.193 155.54C424.193 152.98 425.952 150.932 428.395 150.932ZM425.585 155.589C425.585 157.271 426.831 158.782 428.517 158.782C430.203 158.782 431.376 157.637 431.376 155.394C431.376 153.565 430.447 152.176 428.493 152.176C426.807 152.176 425.585 153.663 425.585 155.589Z" fill="#002666"/>
<path d="M434.772 159.831V148.982H436.189V159.831H434.772Z" fill="#002666"/>
<path d="M442.028 159.831V148.982H443.494V159.831H442.028Z" fill="#002666"/>
<path d="M445.864 159.831V151.127H447.232V152.371C447.867 151.42 448.698 150.932 449.846 150.932C451.654 150.932 452.852 152.005 452.852 153.614C452.852 155.711 452.852 157.734 452.852 159.831H451.435C451.435 159.831 451.435 155.881 451.435 154.004C451.435 152.883 450.848 152.249 449.675 152.249C447.99 152.249 447.257 153.565 447.257 154.979C447.257 156.735 447.257 159.831 447.257 159.831H445.864Z" fill="#002666"/>
<path d="M456.321 159.831H454.904V152.371H453.878V151.127H454.904V148.982H456.321V151.127C456.688 151.127 457.836 151.127 457.836 151.127V152.371H456.321C456.321 154.102 456.321 159.831 456.321 159.831Z" fill="#002666"/>
<path d="M462.844 150.932C465.41 150.932 466.9 153.004 466.9 155.711H460.01C460.01 157.344 461.085 158.88 462.942 158.88C464.09 158.88 465.141 158.051 465.508 157.1L466.68 157.71C466.118 158.88 464.652 160.099 462.918 160.099C460.279 160.099 458.618 157.953 458.618 155.516C458.618 153.078 460.255 150.932 462.844 150.932ZM460.108 154.614H465.459C465.337 153.346 464.481 152.102 462.82 152.102C461.33 152.102 460.255 153.346 460.108 154.614Z" fill="#002666"/>
<path d="M468.562 159.831V148.982H469.979V159.831H468.562Z" fill="#002666"/>
<path d="M472.104 159.831V148.982H473.521V159.831H472.104Z" fill="#002666"/>
<path d="M477.308 149.348C477.308 149.884 476.869 150.323 476.331 150.323C475.818 150.323 475.354 149.884 475.354 149.348C475.354 148.836 475.794 148.372 476.331 148.372C476.869 148.397 477.308 148.836 477.308 149.348ZM475.623 159.831V151.127H477.04V159.831H475.623Z" fill="#002666"/>
<path d="M482.854 150.932C484.198 150.932 485.322 151.615 485.884 152.59V151.152H487.179C487.179 151.152 487.179 156.418 487.179 159.197C487.179 161.318 485.982 163.024 483.025 163.024C480.949 163.024 479.312 161.781 479.165 160.123H480.607C480.607 160.123 480.851 161.781 483.025 161.781C484.907 161.781 485.811 160.684 485.811 159.367C485.811 159.026 485.811 158.807 485.811 158.465C485.811 158.465 484.98 159.953 482.879 159.953C480.387 159.953 478.652 157.978 478.652 155.54C478.701 153.078 480.46 150.932 482.854 150.932ZM480.118 155.516C480.118 157.198 481.291 158.636 483.074 158.636C484.711 158.636 485.908 157.539 485.908 155.564C485.908 153.785 484.98 152.224 483.001 152.224C481.193 152.2 480.118 153.59 480.118 155.516Z" fill="#002666"/>
<path d="M493.092 150.932C495.657 150.932 497.147 153.004 497.147 155.711H490.257C490.257 157.344 491.332 158.88 493.189 158.88C494.338 158.88 495.388 158.051 495.755 157.1L496.927 157.71C496.365 158.88 494.9 160.099 493.165 160.099C490.526 160.099 488.865 157.953 488.865 155.516C488.865 153.078 490.502 150.932 493.092 150.932ZM490.355 154.614H495.706C495.584 153.346 494.728 152.102 493.067 152.102C491.577 152.102 490.477 153.346 490.355 154.614Z" fill="#002666"/>
<path d="M498.858 159.831V151.127H500.226V152.371C500.861 151.42 501.692 150.932 502.84 150.932C504.648 150.932 505.845 152.005 505.845 153.614C505.845 155.711 505.845 157.734 505.845 159.831H504.428C504.428 159.831 504.428 155.881 504.428 154.004C504.428 152.883 503.842 152.249 502.669 152.249C500.983 152.249 500.25 153.565 500.25 154.979C500.25 156.735 500.25 159.831 500.25 159.831H498.858Z" fill="#002666"/>
<path d="M512.051 150.932C513.028 150.932 513.908 151.225 514.69 151.761V153.443C514.69 153.443 513.81 152.273 512.051 152.273C510.121 152.273 508.85 153.809 508.85 155.54C508.85 157.466 510.243 158.758 512.1 158.758C513.175 158.758 514.079 158.246 514.738 157.515V159.221C514.47 159.392 513.444 160.123 511.953 160.123C509.51 160.123 507.482 158.075 507.482 155.54C507.433 152.98 509.412 150.932 512.051 150.932Z" fill="#002666"/>
<path d="M520.407 150.932C522.972 150.932 524.463 153.004 524.463 155.711H517.573C517.573 157.344 518.648 158.88 520.504 158.88C521.653 158.88 522.703 158.051 523.07 157.1L524.243 157.71C523.681 158.88 522.215 160.099 520.48 160.099C517.841 160.099 516.18 157.953 516.18 155.516C516.156 153.078 517.817 150.932 520.407 150.932ZM517.67 154.614H523.021C522.899 153.346 522.044 152.102 520.382 152.102C518.892 152.102 517.793 153.346 517.67 154.614Z" fill="#002666"/>
<path d="M478.97 90.5691H448.478V94.6404H472.739V110.438H444.3V114.51H460.621V132.185H466.876V114.51H482.976V110.438H478.97V90.5691Z" fill="#002666"/>
<path d="M318.596 95.64H327.148V99.8089C327.148 113.608 318.328 116.021 318.328 116.021V121.165C318.328 121.165 326.17 118.288 329.957 111.487C333.744 118.288 341.587 121.165 341.587 121.165V116.021C341.587 116.021 332.767 113.608 332.767 99.8089V95.64H341.636V91.593H318.596V95.64Z" fill="#002666"/>
<path d="M309.117 90.8129H278.625V94.8842H302.862V106.976H294.384V99.5407H288.129V106.976H274.447V111.048H313.124V106.976H309.117V90.8129Z" fill="#002666"/>
<path d="M353.681 89.6183H347.549V132.16H353.681V89.6183Z" fill="#002666"/>
<path d="M415.128 117.045H408.996V132.185H438.608V128.235H415.128V117.045Z" fill="#002666"/>
<path d="M432.793 95.6156H424.608C422.433 92.4463 418.573 90.4472 414.004 90.4472C406.943 90.4472 401.397 95.2255 401.397 101.686C401.397 108.147 406.943 112.901 414.004 112.901C418.304 112.901 421.994 111.096 424.241 108.244H432.793V118.995H438.925V89.984H432.793V95.6156ZM414.004 109.195C410.12 109.195 407.725 105.831 407.725 101.686C407.725 97.5416 410.12 94.1772 414.004 94.1772C417.913 94.1772 420.283 97.5416 420.283 101.686C420.283 105.831 417.913 109.195 414.004 109.195ZM426.172 104.319C426.391 103.466 426.514 102.612 426.514 101.686C426.514 100.955 426.416 100.248 426.294 99.5651H432.793V104.319H426.172Z" fill="#002666"/>
<path d="M243.907 116.606H237.775V132.185H268.681V128.235H243.907V116.606Z" fill="#002666"/>
<path d="M268.193 90.0084H262.06V119.02H268.193V90.0084Z" fill="#002666"/>
<path d="M255.781 101.296C255.781 94.8355 250.333 90.0571 243.272 90.0571C236.211 90.0571 230.665 94.8355 230.665 101.296C230.665 107.757 236.211 112.51 243.272 112.51C250.333 112.51 255.781 107.732 255.781 101.296ZM236.993 101.296C236.993 97.1515 239.387 93.7872 243.272 93.7872C247.181 93.7872 249.551 97.1515 249.551 101.296C249.551 105.44 247.181 108.805 243.272 108.805C239.363 108.78 236.993 105.416 236.993 101.296Z" fill="#002666"/>
<path d="M496.707 118.825H502.864V112.901H515.178V108.975H487.496V112.901H496.707V118.825Z" fill="#002666"/>
<path d="M500.25 128.235V121.263H494.118V132.185H525V128.235H500.25Z" fill="#002666"/>
<path d="M508.362 116.021V119.946H518.648V122.482H524.805V90.0084H518.648V116.021H508.362Z" fill="#002666"/>
<path d="M500.201 107.025C507.213 107.025 511.733 103.173 511.733 98.1998C511.733 93.2264 507.213 89.3989 500.201 89.3989C493.189 89.3989 488.669 93.2508 488.669 98.1998C488.645 103.173 493.165 107.025 500.201 107.025ZM500.201 93.0314C503.548 93.0314 505.503 95.6156 505.503 98.1998C505.503 100.784 503.548 103.393 500.201 103.393C496.854 103.393 494.899 100.808 494.899 98.1998C494.899 95.6156 496.854 93.0314 500.201 93.0314Z" fill="#002666"/>
<path d="M293.456 113.876C285.54 113.876 280.458 118.215 280.458 123.798C280.458 129.405 285.54 133.745 293.456 133.745C301.372 133.745 306.454 129.405 306.454 123.798C306.454 118.215 301.372 113.876 293.456 113.876ZM293.456 130.38C289.204 130.38 286.737 127.089 286.737 123.798C286.737 120.507 289.204 117.24 293.456 117.24C297.707 117.24 300.175 120.531 300.175 123.798C300.175 127.089 297.707 130.38 293.456 130.38Z" fill="#002666"/>
<path d="M394.556 104.514V100.443H371.052V89.3745H364.822V104.514H394.556Z" fill="#002666"/>
<path d="M398.148 107.854H359.472V111.925H398.148V107.854Z" fill="#002666"/>
<path d="M379.359 113.876C371.443 113.876 366.361 118.215 366.361 123.798C366.361 129.405 371.443 133.745 379.359 133.745C387.275 133.745 392.357 129.405 392.357 123.798C392.357 118.215 387.275 113.876 379.359 113.876ZM379.359 130.38C375.108 130.38 372.641 127.089 372.641 123.798C372.641 120.507 375.108 117.24 379.359 117.24C383.611 117.24 386.078 120.531 386.078 123.798C386.078 127.089 383.611 130.38 379.359 130.38Z" fill="#002666"/>
</g>
<defs>
<radialGradient id="paint0_radial_1_13" cx="0" cy="0" r="1" gradientUnits="userSpaceOnUse" gradientTransform="translate(204.917 60.9253) scale(49.4577 49.3505)">
<stop stop-color="#37BEF0"/>
<stop offset="0.1109" stop-color="#32BAED"/>
<stop offset="0.2781" stop-color="#27ACE4"/>
<stop offset="0.4811" stop-color="#1297D4"/>
<stop offset="0.712" stop-color="#0079BD"/>
<stop offset="0.9634" stop-color="#0055A1"/>
<stop offset="1" stop-color="#004F9E"/>
</radialGradient>
<radialGradient id="paint1_radial_1_13" cx="0" cy="0" r="1" gradientUnits="userSpaceOnUse" gradientTransform="translate(204.917 60.9253) scale(49.4575 49.3503)">
<stop stop-color="#37BEF0"/>
<stop offset="0.1109" stop-color="#32BAED"/>
<stop offset="0.2781" stop-color="#27ACE4"/>
<stop offset="0.4811" stop-color="#1297D4"/>
<stop offset="0.712" stop-color="#0079BD"/>
<stop offset="0.9634" stop-color="#0055A1"/>
<stop offset="1" stop-color="#004F9E"/>
</radialGradient>
<radialGradient id="paint2_radial_1_13" cx="0" cy="0" r="1" gradientUnits="userSpaceOnUse" gradientTransform="translate(204.917 60.9253) scale(49.4577 49.3505)">
<stop stop-color="#37BEF0"/>
<stop offset="0.1109" stop-color="#32BAED"/>
<stop offset="0.2781" stop-color="#27ACE4"/>
<stop offset="0.4811" stop-color="#1297D4"/>
<stop offset="0.712" stop-color="#0079BD"/>
<stop offset="0.9634" stop-color="#0055A1"/>
<stop offset="1" stop-color="#004F9E"/>
</radialGradient>
<radialGradient id="paint3_radial_1_13" cx="0" cy="0" r="1" gradientUnits="userSpaceOnUse" gradientTransform="translate(204.917 60.9253) scale(49.4574 49.3503)">
<stop stop-color="#37BEF0"/>
<stop offset="0.1109" stop-color="#32BAED"/>
<stop offset="0.2781" stop-color="#27ACE4"/>
<stop offset="0.4811" stop-color="#1297D4"/>
<stop offset="0.712" stop-color="#0079BD"/>
<stop offset="0.9634" stop-color="#0055A1"/>
<stop offset="1" stop-color="#004F9E"/>
</radialGradient>
<clipPath id="clip0_1_13">
<rect width="525" height="163" fill="white"/>
</clipPath>
</defs>
</svg>
